<svg viewBox="0 0 296.37 790.55" xmlns="http://www.w3.org/2000/svg">
    <g>
        <path
            d="M365.52,703.48c4.63-74-.94-187.48,17-265,13.26-57.3,29.47-76.35,69-101,77.24-48.17,144-38,208-38.26v-181c.39,5.62-139.4-18.94-222,28.26-35,20-67.5,57-70,110C359.25,431.76,367.73,702.47,365.52,703.48Z"
            fill="#0DC2B3" transform="translate(-363.82 -116.73)" />
    </g>
    <g>
        <path
            d="M658.48,320.52c-4.63,74,.94,187.48-17,265-13.26,57.3-29.47,76.35-69,101-77.24,48.17-144,38-208,38.26v181c-.39-5.62,139.4,18.94,222-28.26,35-20,67.5-57,70-110C664.75,592.24,656.27,321.53,658.48,320.52Z"
            fill="#0DC2B3" transform="translate(-363.82 -116.73)" />
    </g>
</svg>
